<svg width="32" height="32" viewBox="0 0 32 32" fill="none" xmlns="http://www.w3.org/2000/svg">
<path d="M14.112 11.0627C15.21 7.32473 19.6606 5.7774 22.8406 8.02806C25.5906 9.9734 26.0526 13.8721 23.8326 16.4061L21.746 18.7887C18.2664 22.7611 13.8724 25.8271 8.94331 27.7221L6.57131 28.6347C6.3317 28.7267 6.0731 28.7582 5.81842 28.7263C5.56374 28.6945 5.32086 28.6003 5.11131 28.4521V28.4521C4.91373 28.3123 4.75142 28.1284 4.63723 27.915C4.52305 27.7016 4.46013 27.4645 4.45347 27.2226C4.44681 26.9806 4.49658 26.7405 4.59885 26.5211C4.70111 26.3017 4.85305 26.1092 5.04264 25.9587L6.89531 24.4867C9.67213 22.2811 11.6993 19.271 12.6993 15.8687L14.112 11.0621V11.0627Z" stroke="black" stroke-width="1.8"/>
<path d="M19.8947 7.12273C20.0547 6.63681 20.326 6.19496 20.6869 5.83235C21.0478 5.46973 21.4884 5.19636 21.9736 5.03398C22.4587 4.8716 22.9751 4.8247 23.4815 4.89702C23.988 4.96933 24.4706 5.15885 24.891 5.45051C25.3113 5.74216 25.6577 6.1279 25.9028 6.57702C26.1478 7.02615 26.2846 7.52626 26.3023 8.03756C26.32 8.54886 26.2181 9.05724 26.0048 9.52224C25.7914 9.98724 25.4725 10.396 25.0733 10.7161" stroke="black" stroke-width="1.8"/>
<path d="M28 2.66669L25.3334 5.33335" stroke="black" stroke-width="1.8" stroke-linecap="round"/>
</svg>
