<svg width="60" height="100" viewBox="0 0 60 100" fill="none" xmlns="http://www.w3.org/2000/svg">
<path d="M60 50C60 77.6142 37.6142 100 10 100L-4 100L-4.00001 5.59506e-06L9.99999 4.37114e-06C37.6142 1.95703e-06 60 22.3858 60 50Z" fill="#C2312C"/>
<path d="M14.9393 48.9393C14.3536 49.5251 14.3536 50.4749 14.9393 51.0607L24.4853 60.6066C25.0711 61.1924 26.0208 61.1924 26.6066 60.6066C27.1924 60.0208 27.1924 59.0711 26.6066 58.4853L18.1213 50L26.6066 41.5147C27.1924 40.9289 27.1924 39.9792 26.6066 39.3934C26.0208 38.8076 25.0711 38.8076 24.4853 39.3934L14.9393 48.9393ZM40 48.5L16 48.5L16 51.5L40 51.5L40 48.5Z" fill="#F6FAF4"/>
</svg>
