<svg width="58" height="178" viewBox="0 0 58 178" fill="none" xmlns="http://www.w3.org/2000/svg">
<path d="M6.96001 40.373H0.178467V1.2561H6.0677C11.9569 1.2561 16.5969 6.10086 16.5969 12.0222C16.5969 15.7904 14.6339 18.8408 11.2431 20.6351C15.1692 22.0706 17.6677 25.4799 17.6677 29.7863C17.6677 35.5283 12.8492 40.373 6.96001 40.373ZM6.0677 5.02425H4.10462V18.6613H5.88924C9.63693 18.6613 12.6708 15.6109 12.6708 11.8428C12.6708 8.07465 9.81539 5.02425 6.0677 5.02425ZM6.96001 22.6089H4.10462V36.4255H6.96001C10.7077 36.4255 13.92 33.3751 13.92 29.4275C13.92 25.4799 10.7077 22.6089 6.96001 22.6089Z" fill="#F6FAF4"/>
<path d="M51.7538 34.8105H35.1569L33.0154 40.5524H28.9108L43.5446 0L58 40.373H53.8954L51.7538 34.8105ZM36.4061 31.5806H50.5046L43.5446 10.4073L36.4061 31.5806Z" fill="#F6FAF4"/>
<path d="M3.92615 82.7198V109.276H0V68.9033L16.5969 96.5364V69.9799H20.5231V110.353L3.92615 82.7198Z" fill="#F6FAF4"/>
<path d="M49.7908 109.276V101.56H36.7631V109.276H32.8369V69.9797H36.7631V97.6128H49.7908V69.9797H53.7169V109.276H49.7908Z" fill="#F6FAF4"/>
<path d="M21.4154 178V149.47L12.8492 161.133L4.28309 149.47V178H0.5354V137.627L13.0277 154.673L25.52 137.627V178H21.4154Z" fill="#F6FAF4"/>
<path d="M42.4738 178V138.704H46.4V178H42.4738V178Z" fill="#F6FAF4"/>
</svg>
