<svg width="546" height="122" viewBox="0 0 546 122" fill="none" xmlns="http://www.w3.org/2000/svg">
<path d="M72.7547 57.9157C72.7547 61 72.4147 64.0843 71.3948 66.8258C70.3748 69.9101 69.0149 72.309 67.3151 74.7079C69.0149 77.1067 70.3748 79.8483 71.3948 82.5899C72.4147 85.6742 72.7547 88.4157 72.7547 91.5C72.7547 95.6124 72.0747 99.382 70.3748 102.809C69.0149 106.236 66.9751 109.663 64.2553 112.404C61.5355 115.146 58.8157 117.202 55.4159 118.916C52.0162 120.629 48.2765 121.315 44.1968 121.657H26.1781H10.1993H0V27.7584H10.1993H25.8381H44.1968C48.2765 28.1011 52.0162 28.7865 55.4159 30.5C58.8157 32.2135 61.8755 34.2697 64.2553 37.0112C66.9751 39.7528 69.0149 42.8371 70.3748 46.6067C72.0747 50.0337 72.7547 53.8034 72.7547 57.9157ZM26.1781 53.4607V62.0281H43.1768C44.1968 62.0281 45.2167 61.6854 46.2366 60.6573C47.2565 59.6292 47.5965 58.6011 47.5965 57.573C47.5965 56.2022 47.2565 55.1742 46.2366 54.4888C45.2167 53.8034 44.1968 53.4607 43.1768 53.4607H26.1781ZM42.8369 96.2978C43.8568 96.2978 44.8767 95.9551 45.8966 95.2697C46.9166 94.5843 47.2565 93.5562 47.2565 92.1854C47.2565 91.1573 46.9166 90.1292 45.8966 89.1011C44.8767 88.073 43.8568 87.7303 42.8369 87.7303H25.8381V96.2978H42.8369Z" fill="#F6FAF4"/>
<path d="M170.328 27.7585V122H143.13V117.545C140.07 119.258 137.01 120.287 133.61 120.972C130.21 121.657 127.151 122 123.411 122C116.951 122 110.832 120.629 105.052 118.23C99.2727 115.832 94.5131 112.405 90.0934 108.292C86.0137 104.18 82.6139 99.0394 80.2341 93.2135C77.8543 87.3877 76.4944 81.2191 76.4944 74.7079C76.4944 68.1967 77.8543 62.0281 80.2341 56.2023C82.6139 50.3764 86.0137 45.5787 90.0934 41.1236C94.1731 37.0113 99.2727 33.5843 105.052 31.1854C110.832 28.7866 116.951 27.4158 123.411 27.4158C126.811 27.4158 130.21 27.7585 133.61 28.4439C137.01 29.1293 140.07 30.1573 143.13 31.5281V27.7585H170.328ZM123.751 92.8708C126.131 92.8708 128.511 92.5281 130.55 91.5001C132.59 90.472 134.63 89.1012 135.99 87.7304C137.69 86.0169 138.71 84.3034 139.73 81.9045C140.75 79.8484 141.09 77.4495 141.09 75.0506C141.09 72.6517 140.75 70.2529 139.73 68.1967C138.71 66.1405 137.69 64.0843 135.99 62.7135C134.29 61 132.59 59.972 130.55 58.9439C128.511 57.9158 126.131 57.5731 123.751 57.5731C121.371 57.5731 118.991 57.9158 116.951 58.9439C114.912 59.972 112.872 61 111.172 62.7135C109.472 64.427 108.112 66.1405 107.432 68.1967C106.412 70.2529 106.072 72.6517 106.072 75.0506C106.072 77.4495 106.412 79.8484 107.432 81.9045C108.452 83.9607 109.812 86.0169 111.172 87.7304C112.872 89.4439 114.572 90.8147 116.951 91.5001C118.991 92.1854 121.371 92.8708 123.751 92.8708Z" fill="#F6FAF4"/>
<path d="M275.38 27.7584V122H248.182L209.085 70.9382V122H181.887V27.7584H209.085L248.182 80.8764V27.7584H275.38Z" fill="#F6FAF4"/>
<path d="M372.273 27.7584V61V88.4157V122H345.075V88.4157H313.797V122H286.599V88.4157V60.6573V27.7584H313.797V61H345.075V27.7584H372.273Z" fill="#F6FAF4"/>
<path d="M511.323 27.4158V121.657H484.125V64.0843L464.746 90.1293L445.367 64.0843V121.657H418.169V27.4158H445.367L464.746 54.8315L484.125 27.4158H511.323Z" fill="#F6FAF4"/>
<path d="M546 11.9944C546 15.4213 544.98 18.1629 542.6 20.2191C540.22 22.618 537.501 23.6461 534.441 23.6461C531.041 23.6461 528.321 22.618 526.281 20.2191C523.902 17.8202 522.882 15.0787 522.882 11.9944C522.882 8.56742 523.902 5.82584 526.281 3.42697C528.661 1.02809 531.381 0 534.441 0C537.841 0 540.56 1.02809 542.6 3.42697C544.98 5.82584 546 8.56742 546 11.9944ZM546 122H522.882V27.7584H546V122Z" fill="#F6FAF4"/>
</svg>
