<svg width="142" height="32" viewBox="0 0 142 32" fill="none" xmlns="http://www.w3.org/2000/svg">
<g clip-path="url(#clip0_25_1766)">
<path d="M18.9215 15.0323C18.9215 15.8328 18.8331 16.6333 18.5679 17.3449C18.3026 18.1454 17.9489 18.7681 17.5068 19.3907C17.9489 20.0134 18.3026 20.7249 18.5679 21.4365C18.8331 22.2371 18.9215 22.9486 18.9215 23.7492C18.9215 24.8165 18.7447 25.795 18.3026 26.6845C17.9489 27.5739 17.4184 28.4634 16.7111 29.175C16.0037 29.8866 15.2964 30.4203 14.4122 30.865C13.528 31.3098 12.5554 31.4877 11.4944 31.5766H6.80822H2.65255H0V7.20483H2.65255H6.7198H11.4944C12.5554 7.29378 13.528 7.47168 14.4122 7.91642C15.2964 8.36116 16.0922 8.89485 16.7111 9.60643C17.4184 10.318 17.9489 11.1185 18.3026 12.097C18.7447 12.9865 18.9215 13.9649 18.9215 15.0323ZM6.80822 13.8759V16.0996H11.2291C11.4944 16.0996 11.7597 16.0107 12.0249 15.7438C12.2902 15.477 12.3786 15.2102 12.3786 14.9433C12.3786 14.5875 12.2902 14.3207 12.0249 14.1428C11.7597 13.9649 11.4944 13.8759 11.2291 13.8759H6.80822ZM11.1407 24.9944C11.406 24.9944 11.6712 24.9055 11.9365 24.7276C12.2017 24.5497 12.2902 24.2829 12.2902 23.9271C12.2902 23.6602 12.2017 23.3934 11.9365 23.1265C11.6712 22.8597 11.406 22.7707 11.1407 22.7707H6.7198V24.9944H11.1407Z" fill="#F6FAF4"/>
<path d="M44.2977 7.20479V31.6655H37.2242V30.5092C36.4284 30.9539 35.6326 31.2208 34.7485 31.3987C33.8643 31.5766 33.0685 31.6655 32.0959 31.6655C30.416 31.6655 28.8244 31.3097 27.3213 30.6871C25.8182 30.0644 24.5803 29.175 23.4309 28.1076C22.3699 27.0402 21.4857 25.706 20.8668 24.1939C20.2478 22.6818 19.8942 21.0807 19.8942 19.3907C19.8942 17.7007 20.2478 16.0996 20.8668 14.5875C21.4857 13.0754 22.3699 11.8301 23.4309 10.6738C24.4919 9.60639 25.8182 8.71691 27.3213 8.09427C28.8244 7.47164 30.416 7.11584 32.0959 7.11584C32.9801 7.11584 33.8643 7.20479 34.7485 7.38269C35.6326 7.56059 36.4284 7.82743 37.2242 8.18322V7.20479H44.2977ZM32.1843 24.1049C32.8033 24.1049 33.4222 24.016 33.9527 23.7491C34.4832 23.4823 35.0137 23.1265 35.3674 22.7707C35.8095 22.326 36.0747 21.8812 36.34 21.2586C36.6052 20.7249 36.6937 20.1023 36.6937 19.4796C36.6937 18.857 36.6052 18.2344 36.34 17.7007C36.0747 17.167 35.8095 16.6333 35.3674 16.2775C34.9253 15.8328 34.4832 15.5659 33.9527 15.2991C33.4222 15.0322 32.8033 14.9433 32.1843 14.9433C31.5654 14.9433 30.9465 15.0322 30.416 15.2991C29.8854 15.5659 29.3549 15.8328 28.9128 16.2775C28.4708 16.7222 28.1171 17.167 27.9402 17.7007C27.675 18.2344 27.5866 18.857 27.5866 19.4796C27.5866 20.1023 27.675 20.7249 27.9402 21.2586C28.2055 21.7923 28.5592 22.326 28.9128 22.7707C29.3549 23.2154 29.797 23.5712 30.416 23.7491C30.9465 23.927 31.5654 24.1049 32.1843 24.1049Z" fill="#F6FAF4"/>
<path d="M71.619 7.20483V31.6655H64.5455L54.3774 18.4123V31.6655H47.3039V7.20483H54.3774L64.5455 20.9918V7.20483H71.619Z" fill="#F6FAF4"/>
<path d="M96.8182 7.20483V15.8328V22.9486V31.6655H89.7447V22.9486H81.6102V31.6655H74.5367V22.9486V15.7438V7.20483H81.6102V15.8328H89.7447V7.20483H96.8182Z" fill="#F6FAF4"/>
<path d="M132.981 7.11584V31.5766H125.908V16.6333L120.868 23.3933L115.828 16.6333V31.5766H108.755V7.11584H115.828L120.868 14.2317L125.908 7.11584H132.981Z" fill="#F6FAF4"/>
<path d="M142 3.11318C142 4.00266 141.735 4.71425 141.116 5.24793C140.497 5.87057 139.79 6.13742 138.994 6.13742C138.11 6.13742 137.402 5.87057 136.872 5.24793C136.253 4.6253 135.988 3.91371 135.988 3.11318C135.988 2.2237 136.253 1.51212 136.872 0.88948C137.491 0.266844 138.198 0 138.994 0C139.878 0 140.585 0.266844 141.116 0.88948C141.735 1.51212 142 2.2237 142 3.11318ZM142 31.6655H135.988V7.20479H142V31.6655Z" fill="#F6FAF4"/>
</g>
<defs>
<clipPath id="clip0_25_1766">
<rect width="142" height="31.6655" fill="white"/>
</clipPath>
</defs>
</svg>
