<svg width="554" height="344" viewBox="0 0 554 344" fill="none" xmlns="http://www.w3.org/2000/svg">
<g opacity="0.04" clip-path="url(#clip0_25_1682)">
<path d="M392.586 367.644L539.743 382.92C540.252 382.92 540.761 382.92 541.27 382.92C544.325 382.92 546.871 381.902 549.417 379.865C551.963 377.828 553.491 374.773 554 371.209C554.509 367.644 553.491 364.589 551.454 362.043C549.417 359.497 546.362 357.969 542.798 357.46L395.132 342.184C391.568 341.675 388.513 342.693 385.967 344.73C383.421 346.767 381.893 349.822 381.384 353.386C380.875 358.478 383.421 363.57 388.004 366.117C389.531 367.135 391.059 367.644 392.586 367.644ZM214.369 213.356C217.425 211.319 218.952 208.773 219.971 205.209C220.48 201.644 219.971 198.589 217.934 195.534L125.261 56.5214C123.224 53.4662 120.678 51.9386 117.114 50.9202C113.55 50.411 110.494 50.9202 107.439 52.957C104.384 54.9938 102.857 57.5398 101.838 61.1042C101.329 64.6687 101.838 67.7239 103.875 70.7791L196.548 209.791C197.566 211.319 199.094 212.847 201.131 213.865C203.167 214.883 205.204 215.393 207.241 215.393C209.787 215.393 212.333 214.883 214.369 213.356ZM255.614 168.037L269.362 37.1717C269.871 30.0429 264.779 23.9325 258.16 23.4233C254.596 22.4049 251.54 23.4233 248.994 25.4601C246.449 27.4969 244.921 30.5521 244.412 34.1165L230.664 164.982C230.154 170.074 232.7 175.166 237.283 177.712C238.811 178.221 240.338 178.73 241.866 179.239C242.375 179.239 242.884 179.239 243.393 179.239C249.504 179.239 255.105 174.656 255.614 168.037ZM476.603 2.54596C442.487 -15.2761 417.537 63.1411 406.335 85.0368C401.243 95.2208 404.807 107.442 414.991 112.534C424.156 117.626 435.358 115.08 441.469 106.423C455.726 86.0552 517.847 24.9509 476.603 2.54596ZM34.625 425.693C35.1342 428.239 36.6618 432.313 43.2812 435.877C51.4283 440.46 65.6857 442.497 86.5625 442.497C97.2555 442.497 109.476 441.988 123.224 440.969C255.105 434.35 373.746 321.816 407.862 271.405C432.812 234.742 442.487 200.117 435.358 172.11C430.776 152.761 418.046 136.975 398.697 126.791C320.281 87.0736 294.312 139.012 273.436 180.258L270.381 186.877C202.149 309.086 139.009 344.73 105.403 364.08L104.384 364.589C101.329 366.626 98.2739 368.153 95.2188 369.681C41.7537 401.761 30.5515 412.454 34.625 425.693ZM244.921 326.908C245.939 323.853 247.976 320.798 251.031 319.27C309.588 287.19 338.612 235.251 350.833 212.847L353.379 208.264C356.943 202.153 364.581 200.117 370.691 203.172C376.801 206.736 378.838 214.374 375.783 220.485L373.237 225.067C359.998 249 328.428 305.521 263.252 341.166C261.215 342.184 259.178 342.693 257.142 342.693C255.105 342.693 253.068 342.184 251.031 341.166C248.994 340.147 246.958 338.11 245.939 336.074C243.903 333.528 243.903 329.963 244.921 326.908ZM0 238.816C0 243.399 2.54596 247.982 6.61948 250.018C8.65625 251.037 10.693 251.546 12.7298 251.546L184.836 252.564C188.401 252.564 191.456 251.037 194.002 249C196.548 246.454 197.566 243.399 197.566 239.834C197.566 232.705 191.965 227.104 184.836 227.104L12.7298 226.086C5.6011 226.086 0 231.687 0 238.816ZM306.533 412.963L333.011 570.816C333.52 574.89 336.066 577.945 339.63 579.982C341.667 581 343.704 581.509 345.741 581.509C346.25 581.509 347.268 581.509 347.778 581.509C354.906 580.491 359.489 573.871 357.961 566.742L331.483 408.89C330.465 401.761 323.846 397.178 316.717 398.196C310.097 399.215 305.515 405.834 306.533 412.963ZM346.759 391.067L444.015 531.098C445.033 532.626 446.561 534.153 448.597 535.172C450.634 536.19 452.671 536.699 454.708 536.699C457.254 536.699 459.8 536.19 461.836 534.663C467.438 530.589 468.965 522.951 464.892 516.84L367.636 376.81C363.562 371.209 355.925 369.681 349.814 373.755C344.213 377.319 342.686 385.466 346.759 391.067Z" fill="#C2312C"/>
</g>
<defs>
<clipPath id="clip0_25_1682">
<rect width="554" height="581" fill="white"/>
</clipPath>
</defs>
</svg>
