<svg width="486" height="224" viewBox="0 0 486 224" fill="none" xmlns="http://www.w3.org/2000/svg">
<path d="M344.399 228.084L473.493 241.467C473.939 241.467 474.386 241.467 474.833 241.467C477.513 241.467 479.746 240.575 481.98 238.79C484.213 237.006 485.553 234.329 486 231.207C486.447 228.084 485.553 225.407 483.767 223.177C481.98 220.946 479.3 219.608 476.173 219.162L346.632 205.779C343.506 205.333 340.825 206.225 338.592 208.01C336.358 209.794 335.018 212.471 334.572 215.593C334.125 220.054 336.358 224.515 340.379 226.746C341.719 227.638 343.059 228.084 344.399 228.084ZM188.057 92.9158C190.737 91.1314 192.077 88.9009 192.971 85.7782C193.417 82.6555 192.971 79.9789 191.184 77.3023L109.886 -44.4829C108.099 -47.1595 105.866 -48.4978 102.739 -49.39C99.6121 -49.8361 96.932 -49.39 94.2518 -47.6056C91.5717 -45.8212 90.2316 -43.5907 89.3382 -40.468C88.8915 -37.3453 89.3382 -34.6687 91.125 -31.9921L172.423 89.7931C173.316 91.1314 174.656 92.4697 176.443 93.3619C178.23 94.2541 180.017 94.7002 181.803 94.7002C184.037 94.7002 186.27 94.2541 188.057 92.9158ZM224.239 53.2129L236.3 -61.4347C236.746 -67.6801 232.279 -73.0333 226.472 -73.4794C223.346 -74.3716 220.665 -73.4794 218.432 -71.695C216.199 -69.9106 214.858 -67.234 214.412 -64.1113L202.351 50.5363C201.904 54.9973 204.138 59.4583 208.158 61.6888C209.498 62.1349 210.838 62.581 212.178 63.0271C212.625 63.0271 213.072 63.0271 213.518 63.0271C218.879 63.0271 223.792 59.0122 224.239 53.2129ZM418.103 -91.7695C388.175 -107.383 366.287 -38.6836 356.46 -19.5013C351.993 -10.5793 355.119 0.127052 364.053 4.58805C372.094 9.04906 381.921 6.81855 387.281 -0.765144C399.789 -18.6091 454.285 -72.1411 418.103 -91.7695ZM30.375 278.939C30.8217 281.17 32.1618 284.739 37.9688 287.861C45.1158 291.876 57.6232 293.661 75.9375 293.661C85.318 293.661 96.0386 293.215 108.099 292.322C223.792 286.523 327.871 187.935 357.8 143.771C379.688 111.652 388.175 81.3172 381.921 56.7817C377.901 39.8299 366.733 26.0008 349.759 17.0788C280.969 -17.7169 258.188 27.7853 239.873 63.9193L237.193 69.7186C177.336 176.783 121.947 208.01 92.4651 224.961L91.5717 225.407C88.8915 227.192 86.2114 228.53 83.5313 229.868C36.6287 257.973 26.8015 267.341 30.375 278.939ZM214.858 192.396C215.752 189.719 217.539 187.043 220.219 185.705C271.588 157.6 297.05 112.098 307.77 92.4697L310.004 88.4548C313.131 83.1016 319.831 81.3172 325.191 83.9938C330.551 87.1165 332.338 93.808 329.658 99.1612L327.425 103.176C315.811 124.143 288.116 173.66 230.939 204.887C229.153 205.779 227.366 206.225 225.579 206.225C223.792 206.225 222.006 205.779 220.219 204.887C218.432 203.995 216.645 202.21 215.752 200.426C213.965 198.195 213.965 195.073 214.858 192.396ZM0 115.221C0 119.236 2.23346 123.251 5.80698 125.035C7.59375 125.927 9.38052 126.373 11.1673 126.373L162.149 127.266C165.276 127.266 167.956 125.927 170.189 124.143C172.423 121.912 173.316 119.236 173.316 116.113C173.316 109.868 168.403 104.961 162.149 104.961L11.1673 104.068C4.9136 104.068 0 108.975 0 115.221ZM268.908 267.787L292.136 406.078C292.583 409.647 294.816 412.323 297.943 414.108C299.73 415 301.517 415.446 303.303 415.446C303.75 415.446 304.643 415.446 305.09 415.446C311.344 414.554 315.364 408.755 314.024 402.509L290.796 264.218C289.903 257.973 284.096 253.958 277.842 254.85C272.035 255.742 268.015 261.542 268.908 267.787ZM304.197 248.605L389.515 371.282C390.408 372.62 391.748 373.959 393.535 374.851C395.322 375.743 397.108 376.189 398.895 376.189C401.129 376.189 403.362 375.743 405.149 374.405C410.062 370.836 411.403 364.145 407.829 358.791L322.511 236.114C318.938 231.207 312.237 229.868 306.877 233.437C301.963 236.56 300.623 243.698 304.197 248.605Z" fill="#F6FAF4"/>
</svg>
