<svg width="46" height="163" viewBox="0 0 46 163" fill="none" xmlns="http://www.w3.org/2000/svg">
<path d="M5.52006 32.4344H0.141602V1.00903H4.81237C9.48314 1.00903 13.1631 4.90117 13.1631 9.65823C13.1631 12.6854 11.6062 15.1361 8.91699 16.5776C12.0308 17.7308 14.0124 20.4697 14.0124 23.9294C14.0124 28.5423 10.1908 32.4344 5.52006 32.4344ZM4.81237 4.03625H3.25545V14.9919H4.67083C7.64314 14.9919 10.0493 12.5413 10.0493 9.51407C10.0493 6.48686 7.78468 4.03625 4.81237 4.03625ZM5.52006 18.1633H3.25545V29.2631H5.52006C8.49237 29.2631 11.0401 26.8125 11.0401 23.6411C11.0401 20.4697 8.49237 18.1633 5.52006 18.1633Z" fill="#F6FAF4"/>
<path d="M41.0461 27.9657H27.883L26.1846 32.5786H22.9292L34.5354 0L46 32.4345H42.7446L41.0461 27.9657ZM28.8738 25.371H40.0553L34.5354 8.36089L28.8738 25.371Z" fill="#F6FAF4"/>
<path d="M3.11385 66.4546V87.7893H0V55.3549L13.1631 77.5544V56.2198H16.2769V88.6542L3.11385 66.4546Z" fill="#F6FAF4"/>
<path d="M39.4891 87.7893V81.5907H29.1568V87.7893H26.043V56.2197H29.1568V78.4193H39.4891V56.2197H42.603V87.7893H39.4891Z" fill="#F6FAF4"/>
<path d="M16.9846 143V120.08L10.1907 129.45L3.39687 120.08V143H0.424561V110.566L10.3323 124.26L20.2399 110.566V143H16.9846Z" fill="#F6FAF4"/>
<path d="M33.686 143V111.43H36.7999V143H33.686Z" fill="#F6FAF4"/>
<line y1="162" x2="46" y2="162" stroke="#F6FAF4" stroke-width="2"/>
</svg>
