<svg width="69" height="73" viewBox="0 0 69 73" fill="none" xmlns="http://www.w3.org/2000/svg">
<g clip-path="url(#clip0_369_2923)">
<path d="M25.8643 25.5612C25.8507 25.5623 25.8333 25.5631 25.8116 25.5631L25.809 25.5629C25.8073 25.5627 25.8037 25.5622 25.7979 25.5607C25.7874 25.5581 25.7663 25.5516 25.734 25.5359L25.7333 25.5351L25.7312 25.5324L25.7294 25.5336L25.7312 25.5324L14.1889 8.06612C14.1734 8.04265 14.1673 8.02911 14.1654 8.02455C14.1637 8.02042 14.1634 8.01892 14.1631 8.0176L14.1631 8.01757C14.163 8.01686 14.1608 8.00635 14.161 7.98172C14.1763 7.94143 14.1863 7.92473 14.1885 7.92134C14.1909 7.91912 14.1995 7.91131 14.2185 7.89853C14.2411 7.88336 14.2533 7.87789 14.2562 7.87669C14.2568 7.87643 14.2572 7.87625 14.2575 7.87614L14.2578 7.87603L25.8643 25.5612ZM25.8643 25.5612C25.8819 25.5492 25.8901 25.5419 25.8924 25.5397C25.8945 25.5363 25.9046 25.5197 25.9199 25.4793C25.9201 25.4547 25.9179 25.4442 25.9178 25.4435L25.9178 25.4435L25.9178 25.4434C25.9175 25.4421 25.9172 25.4406 25.9155 25.4365C25.9136 25.432 25.9075 25.4184 25.8919 25.3949L14.3497 7.92868C14.3372 7.90976 14.3293 7.90058 14.3265 7.89761L25.8643 25.5612ZM49.079 44.7038L49.0587 44.6924C49.0444 44.6844 49.0264 44.6687 49.0117 44.6399C49.0001 44.6172 48.9942 44.593 48.9931 44.5707C49.0022 44.5259 49.013 44.4972 49.0202 44.4816L49.0283 44.4827L49.0575 44.4858L67.4118 46.4013C67.4689 46.4113 67.5013 46.4249 67.5146 46.4316C67.5036 46.5089 67.4857 46.5513 67.4774 46.5674C67.4769 46.5683 67.4765 46.5692 67.4761 46.5699C67.4455 46.5938 67.4254 46.6063 67.4149 46.6122C67.4148 46.6122 67.4146 46.6122 67.4145 46.6122H67.4141H67.4138H67.4134H67.413H67.4127H67.4123H67.4119H67.4115H67.4112H67.4108H67.4104H67.4101H67.4097H67.4093H67.4089H67.4086H67.4082H67.4078H67.4075H67.4071H67.4067H67.4063H67.406H67.4056H67.4052H67.4049H67.4045H67.4041H67.4037H67.4034H67.403H67.4026H67.4023H67.4019H67.4015H67.4011H67.4008H67.4004H67.4H67.3997H67.3993H67.3989H67.3985H67.3982H67.3978H67.3974H67.3971H67.3967H67.3963H67.3959H67.3956H67.3952H67.3948H67.3945H67.3941H67.3937H67.3933H67.393H67.3926H67.3922H67.3919H67.3915H67.3911H67.3907H67.3904H67.39H67.3896H67.3893H67.3889H67.3885H67.3881H67.3878H67.3874H67.387H67.3867H67.3863H67.3859H67.3855H67.3852H67.3848H67.3844H67.384H67.3837H67.3833H67.3829H67.3826H67.3822H67.3818H67.3814H67.3811H67.3807H67.3803H67.38H67.3796H67.3792H67.3788H67.3785H67.3781H67.3777H67.3774H67.377H67.3766H67.3762H67.3759H67.3755H67.3751H67.3748H67.3744H67.374H67.3736H67.3733H67.3729H67.3725H67.3722H67.3718H67.3714H67.371H67.3707H67.3703H67.3699H67.3696H67.3692H67.3688H67.3684H67.3681H67.3677H67.3673H67.367H67.3666H67.3662H67.3658H67.3655H67.3651H67.3647H67.3644H67.364H67.3636H67.3632H67.3629H67.3625H67.3621H67.3618H67.3614H67.361H67.3606H67.3603H67.3599H67.3595H67.3592H67.3588H67.3584H67.358H67.3577H67.3573H67.3569H67.3566H67.3562H67.3558H67.3554H67.3551H67.3547H67.3543H67.354H67.3536H67.3532H67.3528H67.3525H67.3521H67.3517H67.3513H67.351H67.3506H67.3502H67.3499H67.3495H67.3491H67.3487H67.3484H67.348H67.3476H67.3473H67.3469H67.3465H67.3461H67.3458H67.3454H67.345H67.3447H67.3443H67.3439H67.3435H67.3432H67.3428H67.3424H67.3421H67.3417H67.3413H67.3409H67.3406H67.3402H67.3398H67.3395H67.3391H67.3387H67.3383H67.338H67.3376H67.3372H67.3369H67.3365H67.3361H67.3357H67.3354H67.335H67.3346H67.3343H67.3339H67.3335H67.3331H67.3328H67.3324H67.332H67.3317H67.3313H67.3309H67.3305H67.3302H67.3298H67.3294H67.3291H67.3287H67.3283H67.3279H67.3276H67.3272H67.3268H67.3265H67.3261H67.3257H67.3253H67.325H67.3246H67.3242H67.3239H67.3235H67.3231H67.3227H67.3224H67.322H67.3216H67.3213H67.3209H67.3205H67.3201H67.3198H67.3194H67.319H67.3186H67.3183H67.3179H67.3175H67.3172H67.3168H67.3164H67.316H67.3157H67.3153H67.3149H67.3146H67.3142H67.3138H67.3134H67.3131H67.3127H67.3123H67.312H67.3116H67.3112H67.3108H67.3105H67.3101H67.3097H67.3094H67.309H67.3086H67.3082H67.3079H67.3075H67.3071H67.3068H67.3064H67.306H67.3056H67.3053H67.3049H67.3045H67.3042H67.3038H67.3034H67.303H67.3027H67.3023H67.3019H67.3016L49.079 44.7038ZM49.0138 44.4811C49.0139 44.4809 49.014 44.4808 49.0142 44.4807L49.0138 44.4811ZM42.9558 71.4744L39.6622 51.6663C39.6551 51.5984 39.6742 51.547 39.6936 51.5186C39.6948 51.5168 39.6959 51.5153 39.697 51.5139C39.7362 51.5147 39.7616 51.527 39.7747 51.5364C39.7834 51.5427 39.788 51.5485 39.7907 51.5529C39.7928 51.5562 39.7978 51.5651 39.8007 51.5855L39.8032 51.6033L39.8062 51.6212L43.104 71.4547L43.1094 71.4876L43.1164 71.5203C43.1211 71.5424 43.1205 71.5565 43.1196 71.564H43.1191H43.1185H43.118H43.1175H43.117H43.1165H43.116H43.1155H43.115H43.1145H43.114H43.1135H43.113H43.1125H43.112H43.1115H43.111H43.1105H43.11H43.1095H43.109H43.1085H43.108H43.1075H43.107H43.1065H43.106H43.1055H43.1051H43.1046H43.1041H43.1036H43.1031H43.1026H43.1021H43.1017H43.1012H43.1007H43.1002H43.0997H43.0993H43.0988H43.0983H43.0978H43.0974H43.0969H43.0964H43.0959H43.0955H43.095H43.0945H43.0941H43.0936H43.0931H43.0927H43.0922H43.0917H43.0913H43.0908H43.0904H43.0899H43.0895H43.089H43.0885H43.0881H43.0876H43.0872H43.0867H43.0863H43.0858H43.0854H43.0849H43.0845H43.0841H43.0836H43.0832H43.0827H43.0823H43.0819H43.0814H43.081H43.0806H43.0801H43.0797H43.0793H43.0788H43.0784H43.078H43.0775H43.0771H43.0767H43.0763H43.0759H43.0754H43.075H43.0746H43.0742H43.0738H43.0734H43.0729H43.0725H43.0721H43.0717H43.0713H43.0709H43.0705H43.0701H43.0697H43.0693H43.0689H43.0685H43.0681H43.0677H43.0673H43.0669H43.0665H43.0661H43.0658H43.0654H43.065H43.0646H43.0642H43.0638H43.0635H43.0631H43.0627H43.0623H43.062H43.0616L43.059 71.5638C43.0573 71.5636 43.0537 71.563 43.0479 71.5616C43.0409 71.5598 43.0291 71.5563 43.0124 71.5495C42.9874 71.5328 42.9712 71.5191 42.9615 71.51L42.9609 71.5051L42.9558 71.4744ZM30.3445 20.9577L30.3423 20.9784L30.3407 20.999C30.3403 21.0042 30.3397 21.0072 30.3394 21.0083C30.3391 21.0087 30.3386 21.0093 30.3378 21.01L30.246 20.9791C30.2438 20.9755 30.2417 20.9717 30.2396 20.9677C30.2245 20.9381 30.219 20.906 30.2214 20.8788C30.2214 20.8783 30.2215 20.8777 30.2215 20.8772L31.9295 4.47684C31.9324 4.45958 31.9356 4.44432 31.939 4.43092L32.0165 4.43694C32.0177 4.43819 32.019 4.43965 32.0204 4.44135C32.0357 4.46019 32.0539 4.49647 32.0531 4.55097L30.3445 20.9577ZM52.4199 12.8309L52.3914 12.8149L52.3621 12.8001C51.8948 12.5644 51.653 11.9605 51.9501 11.3553C52.2136 10.8346 52.5369 10.0744 52.8867 9.25197C53.0349 8.90369 53.1878 8.54422 53.3429 8.18701C53.8912 6.92425 54.5142 5.5725 55.208 4.38979C55.9191 3.17759 56.6203 2.29223 57.2695 1.8276C57.5768 1.6076 57.8191 1.52101 58.0037 1.49842C58.169 1.4782 58.3735 1.49761 58.6507 1.64155C59.0846 1.88146 59.3013 2.12456 59.4174 2.32786C59.5348 2.53353 59.6034 2.79313 59.5939 3.14712C59.5735 3.91634 59.1905 4.95107 58.4695 6.18496C57.7687 7.38429 56.8506 8.60355 55.9662 9.7141C55.7066 10.0401 55.4412 10.3669 55.1843 10.6833C54.6143 11.3851 54.0859 12.0357 53.7542 12.5134C53.4301 12.9749 52.8816 13.0896 52.4199 12.8309ZM5.78386 53.1947L5.76922 53.1209L5.74725 53.0488C5.70319 52.9044 5.71528 52.8575 5.7403 52.7928C5.78804 52.6693 5.94189 52.4019 6.42434 51.9497C7.40334 51.0321 9.26462 49.774 12.5867 47.7619C12.9262 47.5906 13.3358 47.3825 13.7554 47.1084L13.8033 47.0843L13.8428 47.0643L13.8812 47.0421L13.9926 46.9773C16.1034 45.7517 19.1945 43.9569 22.8126 40.5513C26.4895 37.0903 30.6723 32.0045 34.988 24.2067L35.0157 24.1565L35.0396 24.1044L35.4088 23.2972C36.751 20.6225 38.0519 18.0942 40.032 16.702C40.9689 16.0432 42.0686 15.6391 43.457 15.6464C44.8704 15.6538 46.6672 16.089 48.964 17.2611C51.0232 18.3576 52.3012 20.0005 52.763 21.9678L52.7659 21.9798L52.7689 21.9919C53.5068 24.9165 52.5532 28.8178 49.5552 33.2619L49.553 33.2652C47.5459 36.2571 42.9275 41.249 36.7744 45.5911C30.6226 49.9322 23.0951 53.5116 15.2716 53.9077L15.2536 53.9086L15.2356 53.91C13.5505 54.0359 12.0669 54.0978 10.7812 54.0978C8.17354 54.0978 6.76629 53.822 6.13093 53.4614L6.11884 53.4546L6.10663 53.4479C5.86698 53.3178 5.79839 53.2228 5.79039 53.2115C5.7881 53.2082 5.78708 53.2073 5.78644 53.2061C5.7856 53.2045 5.78542 53.2026 5.78386 53.1947ZM42.3818 26.0197L42.3818 26.0196L42.3763 26.0298C40.8735 28.8093 37.435 34.9833 30.5597 38.7911C29.729 39.2231 29.2822 39.993 29.0803 40.6039C28.8801 41.2099 28.7752 42.1855 29.3608 43.0297C29.6407 43.5194 30.0912 43.9536 30.5901 44.2052C31.0278 44.426 31.5114 44.5579 32.0267 44.5579C32.5419 44.5579 33.0255 44.426 33.4632 44.2052L33.488 44.1927L33.5123 44.1793C42.0304 39.4798 46.1341 32.0407 47.8008 29.0011C47.801 29.0007 47.8012 29.0003 47.8015 28.9999L48.1172 28.4265L48.1329 28.3981L48.1473 28.369C48.8608 26.9294 48.4002 25.1001 46.9299 24.2349L46.888 24.2102L46.8447 24.1884C45.396 23.4576 43.5687 23.939 42.7143 25.4166L42.7065 25.4301L42.6989 25.4438L42.3818 26.0197ZM1.59443 30.1057L1.59443 30.1056H1.58548L1.58289 30.1054C1.5812 30.1052 1.5776 30.1047 1.57179 30.1032C1.56326 30.101 1.54769 30.0963 1.52475 30.0862C1.52389 30.0848 1.52297 30.0833 1.52201 30.0816C1.51558 30.0705 1.50947 30.0563 1.50526 30.0407C1.50105 30.0252 1.5 30.0131 1.5 30.0062C1.5 29.9784 1.5051 29.9611 1.50928 29.951C1.51376 29.9401 1.51943 29.9322 1.5251 29.9265C1.53075 29.9208 1.53712 29.9165 1.54443 29.9135C1.5507 29.9108 1.56256 29.907 1.58327 29.9067C1.584 29.9067 1.58473 29.9067 1.58548 29.9067L23.0122 30.0346V30.0346H23.0211C23.0432 30.0346 23.0557 30.0387 23.0622 30.0414C23.0695 30.0445 23.0759 30.0488 23.0815 30.0545C23.0872 30.0602 23.0929 30.0681 23.0973 30.0789C23.1015 30.089 23.1066 30.1064 23.1066 30.1341C23.1066 30.1626 23.1052 30.1842 23.1035 30.2001C23.0855 30.2104 23.0703 30.2177 23.0582 30.2228C23.0429 30.2293 23.0334 30.2317 23.0291 30.2326C23.026 30.2333 23.0241 30.2335 23.0224 30.2336C23.0219 30.2336 23.0215 30.2336 23.0211 30.2336L1.59443 30.1057ZM23.0992 30.2315L24.1627 31.2857L23.0994 30.2277C23.1021 30.2248 23.1037 30.2229 23.1045 30.222C23.1055 30.2208 23.105 30.2213 23.1036 30.2234C23.1019 30.2261 23.1003 30.229 23.0992 30.2315ZM44.4239 48.2853L44.4147 48.2719L44.4053 48.2589C44.405 48.2581 44.4042 48.2561 44.4034 48.2524C44.4016 48.2438 44.4008 48.2306 44.4035 48.2157C44.4042 48.2117 44.4051 48.2082 44.4059 48.2054L44.406 48.2053C44.4388 48.1833 44.4621 48.1761 44.4746 48.1735C44.4791 48.1725 44.4832 48.172 44.487 48.1717C44.4944 48.1711 44.5006 48.1716 44.5059 48.1725C44.5182 48.1748 44.5412 48.1823 44.5668 48.2149L56.6548 65.7728C56.6743 65.804 56.6821 65.8283 56.6855 65.8444C56.6892 65.8625 56.6889 65.8778 56.6866 65.8908C56.6842 65.9039 56.6792 65.9184 56.6692 65.933C56.6588 65.9335 56.6469 65.9339 56.6333 65.9339L56.6307 65.9337C56.629 65.9334 56.6254 65.9329 56.6196 65.9314C56.6091 65.9288 56.588 65.9223 56.5557 65.9066L56.555 65.9058L56.5529 65.9031L56.545 65.8912L56.537 65.8795L44.4239 48.2853Z" stroke="#F6FAF4" stroke-width="3"/>
</g>
<defs>
<clipPath id="clip0_369_2923">
<rect width="69" height="73" fill="white"/>
</clipPath>
</defs>
</svg>
