<svg width="37" height="38" viewBox="0 0 37 38" fill="none" xmlns="http://www.w3.org/2000/svg">
<g clip-path="url(#clip0_25_1738)">
<path d="M26.2197 24.0456L36.0478 25.0447C36.0818 25.0447 36.1158 25.0447 36.1498 25.0447C36.3539 25.0447 36.5239 24.9781 36.6939 24.8449C36.864 24.7117 36.966 24.5118 37 24.2787C37.034 24.0456 36.966 23.8457 36.83 23.6792C36.6939 23.5127 36.4899 23.4128 36.2518 23.3795L26.3897 22.3804C26.1516 22.3471 25.9476 22.4137 25.7776 22.5469C25.6075 22.6801 25.5055 22.8799 25.4715 23.1131C25.4375 23.4461 25.6075 23.7791 25.9136 23.9457C26.0156 24.0123 26.1176 24.0456 26.2197 24.0456ZM14.3171 13.9544C14.5211 13.8212 14.6232 13.6547 14.6912 13.4216C14.7252 13.1884 14.6912 12.9886 14.5551 12.7888L8.36581 3.69676C8.22978 3.49693 8.05974 3.39702 7.82169 3.33041C7.58364 3.29711 7.37959 3.33041 7.17555 3.46363C6.97151 3.59685 6.86948 3.76337 6.80147 3.9965C6.76746 4.22962 6.80147 4.42945 6.9375 4.62927L13.1268 13.7213C13.1948 13.8212 13.2969 13.9211 13.4329 13.9877C13.5689 14.0543 13.705 14.0876 13.841 14.0876C14.011 14.0876 14.1811 14.0543 14.3171 13.9544ZM17.0717 10.9904L17.9899 2.4312C18.0239 1.96495 17.6838 1.5653 17.2417 1.53199C17.0037 1.46538 16.7996 1.53199 16.6296 1.66521C16.4596 1.79842 16.3575 1.99825 16.3235 2.23138L15.4053 10.7905C15.3713 11.1236 15.5414 11.4566 15.8474 11.6231C15.9494 11.6564 16.0515 11.6897 16.1535 11.7231C16.1875 11.7231 16.2215 11.7231 16.2555 11.7231C16.6636 11.7231 17.0377 11.4233 17.0717 10.9904ZM31.8309 0.166523C29.5524 -0.999121 27.886 4.12971 27.1379 5.56179C26.7978 6.22787 27.0358 7.02717 27.716 7.36021C28.3281 7.69325 29.0763 7.52673 29.4844 6.96056C30.4366 5.6284 34.5855 1.6319 31.8309 0.166523ZM2.3125 27.8422C2.34651 28.0088 2.44853 28.2752 2.89062 28.5083C3.43474 28.8081 4.38695 28.9413 5.78125 28.9413C6.4954 28.9413 7.31158 28.908 8.22978 28.8414C17.0377 28.4084 24.9614 21.0482 27.2399 17.7511C28.9062 15.3532 29.5524 13.0885 29.0763 11.2568C28.7702 9.99124 27.92 8.95881 26.6278 8.29273C21.3906 5.69501 19.6562 9.09203 18.2619 11.7897L18.0579 12.2226C13.5009 20.2156 9.28401 22.5469 7.03952 23.8124L6.97151 23.8457C6.76746 23.979 6.56342 24.0789 6.35937 24.1788C2.7886 26.2769 2.04044 26.9763 2.3125 27.8422ZM16.3575 21.3812C16.4255 21.1814 16.5616 20.9816 16.7656 20.8817C20.6765 18.7835 22.6149 15.3865 23.4311 13.9211L23.6011 13.6214C23.8392 13.2217 24.3493 13.0885 24.7573 13.2883C25.1654 13.5215 25.3015 14.021 25.0974 14.4207L24.9274 14.7204C24.0432 16.2857 21.9347 19.9825 17.5818 22.3138C17.4458 22.3804 17.3097 22.4137 17.1737 22.4137C17.0377 22.4137 16.9017 22.3804 16.7656 22.3138C16.6296 22.2472 16.4936 22.1139 16.4255 21.9807C16.2895 21.8142 16.2895 21.5811 16.3575 21.3812ZM0 15.6196C0 15.9194 0.170037 16.2191 0.442095 16.3523C0.578125 16.4189 0.714154 16.4522 0.850184 16.4522L12.3447 16.5188C12.5827 16.5188 12.7868 16.4189 12.9568 16.2857C13.1268 16.1192 13.1948 15.9194 13.1948 15.6862C13.1948 15.22 12.8208 14.8536 12.3447 14.8536L0.850184 14.787C0.374081 14.787 0 15.1534 0 15.6196ZM20.4724 27.0096L22.2408 37.3339C22.2748 37.6003 22.4448 37.8002 22.6829 37.9334C22.8189 38 22.955 38.0333 23.091 38.0333C23.125 38.0333 23.193 38.0333 23.227 38.0333C23.7031 37.9667 24.0092 37.5337 23.9072 37.0675L22.1388 26.7432C22.0708 26.277 21.6287 25.9772 21.1526 26.0438C20.7105 26.1104 20.4044 26.5434 20.4724 27.0096ZM23.159 25.5776L29.6544 34.7362C29.7224 34.8361 29.8244 34.936 29.9605 35.0026C30.0965 35.0692 30.2325 35.1025 30.3686 35.1025C30.5386 35.1025 30.7086 35.0692 30.8447 34.9693C31.2187 34.7029 31.3208 34.2033 31.0487 33.8037L24.5533 24.645C24.2812 24.2787 23.7711 24.1788 23.363 24.4452C22.989 24.6784 22.8869 25.2112 23.159 25.5776Z" fill="#000000"/>
</g>
<defs>
<clipPath id="clip0_25_1738">
<rect width="37" height="38" fill="white"/>
</clipPath>
</defs>
</svg>
