<svg width="683" height="837" viewBox="0 0 683 837" fill="none" xmlns="http://www.w3.org/2000/svg">
<path d="M661.161 477.857L908.989 503.571C909.847 503.571 910.704 503.571 911.562 503.571C916.707 503.571 920.995 501.857 925.282 498.429C929.57 495 932.143 489.857 933 483.857C933.858 477.857 932.143 472.714 928.712 468.429C925.282 464.143 920.137 461.571 914.134 460.714L665.449 435C659.446 434.143 654.301 435.857 650.013 439.286C645.725 442.714 643.153 447.857 642.295 453.857C641.438 462.429 645.725 471 653.443 475.286C656.016 477 658.588 477.857 661.161 477.857ZM361.023 218.143C366.168 214.714 368.741 210.429 370.456 204.429C371.313 198.429 370.456 193.286 367.026 188.143L210.954 -45.8571C207.524 -51 203.236 -53.5714 197.233 -55.2857C191.231 -56.1428 186.085 -55.2857 180.94 -51.8571C175.795 -48.4286 173.222 -44.1428 171.507 -38.1428C170.65 -32.1428 171.507 -27 174.938 -21.8571L331.009 212.143C332.724 214.714 335.297 217.286 338.727 219C342.157 220.714 345.587 221.571 349.017 221.571C353.305 221.571 357.593 220.714 361.023 218.143ZM430.483 141.857L453.637 -78.4285C454.495 -90.4285 445.919 -100.714 434.771 -101.571C428.768 -103.286 423.623 -101.571 419.336 -98.1428C415.048 -94.7143 412.475 -89.5714 411.618 -83.5714L388.464 136.714C387.607 145.286 391.894 153.857 399.612 158.143C402.185 159 404.757 159.857 407.33 160.714C408.188 160.714 409.045 160.714 409.903 160.714C420.193 160.714 429.626 153 430.483 141.857ZM802.654 -136.714C745.199 -166.714 703.18 -34.7142 684.314 2.1429C675.739 19.2858 681.742 39.8572 698.892 48.4286C714.328 57 733.194 52.7143 743.484 38.1429C767.495 3.85718 872.115 -99 802.654 -136.714ZM58.3125 575.571C59.17 579.857 61.7426 586.714 72.8906 592.714C86.6112 600.429 110.622 603.857 145.781 603.857C163.79 603.857 184.37 603 207.524 601.286C429.626 590.143 629.432 400.714 686.887 315.857C728.906 254.143 745.199 195.857 733.194 148.714C725.476 116.143 704.038 89.5715 671.451 72.4286C539.391 5.57146 495.656 93.0001 460.497 162.429L455.352 173.571C340.442 379.286 234.108 439.286 177.51 471.857L175.795 472.714C170.65 476.143 165.505 478.714 160.359 481.286C70.318 535.286 51.4522 553.286 58.3125 575.571ZM412.475 409.286C414.19 404.143 417.62 399 422.766 396.429C521.382 342.429 570.262 255 590.843 217.286L595.131 209.571C601.133 199.286 613.996 195.857 624.287 201C634.577 207 638.007 219.857 632.862 230.143L628.574 237.857C606.279 278.143 553.111 373.286 443.347 433.286C439.916 435 436.486 435.857 433.056 435.857C429.626 435.857 426.196 435 422.766 433.286C419.335 431.571 415.905 428.143 414.19 424.714C410.76 420.429 410.76 414.429 412.475 409.286ZM0 261C0 268.714 4.28768 276.429 11.148 279.857C14.5781 281.571 18.0083 282.429 21.4384 282.429L311.286 284.143C317.289 284.143 322.434 281.571 326.722 278.143C331.009 273.857 332.724 268.714 332.724 262.714C332.724 250.714 323.291 241.286 311.286 241.286L21.4384 239.571C9.4329 239.571 0 249 0 261ZM516.237 554.143L560.829 819.857C561.687 826.714 565.974 831.857 571.977 835.286C575.407 837 578.837 837.857 582.267 837.857C583.125 837.857 584.84 837.857 585.698 837.857C597.703 836.143 605.421 825 602.848 813L558.256 547.286C556.541 535.286 545.393 527.571 533.388 529.286C522.24 531 514.522 542.143 516.237 554.143ZM583.983 517.286L747.772 753C749.487 755.572 752.06 758.143 755.49 759.857C758.92 761.571 762.35 762.429 765.78 762.429C770.068 762.429 774.356 761.571 777.786 759C787.219 752.143 789.791 739.286 782.931 729L619.142 493.286C612.281 483.857 599.418 481.286 589.128 488.143C579.695 494.143 577.122 507.857 583.983 517.286Z" fill="#F6FAF4"/>
</svg>
