<svg width="1137" height="872" viewBox="0 0 1137 872" fill="none" xmlns="http://www.w3.org/2000/svg">
<path d="M851.785 797.3L1171.07 830.429C1172.17 830.429 1173.28 830.429 1174.38 830.429C1181.01 830.429 1186.53 828.221 1192.06 823.804C1197.58 819.386 1200.9 812.761 1202 805.031C1203.1 797.301 1200.9 790.675 1196.48 785.153C1192.06 779.632 1185.43 776.319 1177.69 775.215L857.309 742.086C849.575 740.981 842.947 743.19 837.423 747.607C831.899 752.024 828.585 758.65 827.48 766.38C826.375 777.423 831.899 788.466 841.842 793.988C845.156 796.196 848.471 797.3 851.785 797.3ZM465.112 462.699C471.741 458.282 475.055 452.761 477.265 445.031C478.37 437.301 477.265 430.675 472.846 424.049L271.776 122.577C267.357 115.951 261.833 112.638 254.099 110.429C246.366 109.325 239.737 110.429 233.108 114.847C226.48 119.264 223.165 124.785 220.956 132.515C219.851 140.245 220.956 146.871 225.375 153.497L426.445 454.969C428.654 458.282 431.969 461.595 436.388 463.804C440.807 466.012 445.226 467.116 449.645 467.116C455.169 467.116 460.693 466.012 465.112 462.699ZM554.599 364.417L584.428 80.6134C585.533 65.1533 574.485 51.9017 560.123 50.7975C552.39 48.5889 545.761 50.7975 540.237 55.2146C534.713 59.6318 531.399 66.2576 530.294 73.9876L500.465 357.791C499.36 368.834 504.884 379.877 514.827 385.399C518.142 386.503 521.456 387.607 524.77 388.712C525.875 388.712 526.98 388.712 528.085 388.712C541.342 388.712 553.495 378.773 554.599 364.417ZM1034.07 5.52138C960.053 -33.1289 905.919 136.932 881.614 184.417C870.566 206.503 878.3 233.006 900.395 244.049C920.281 255.092 944.586 249.57 957.844 230.797C988.778 186.626 1123.56 54.1103 1034.07 5.52138ZM75.125 923.19C76.2298 928.712 79.5441 937.546 93.9062 945.276C111.583 955.215 142.517 959.632 187.812 959.632C211.013 959.632 237.528 958.527 267.357 956.319C553.495 941.963 810.908 697.914 884.928 588.589C939.062 509.08 960.053 433.988 944.586 373.251C934.643 331.288 907.024 297.055 865.042 274.969C694.906 188.834 638.562 301.472 593.267 390.92L586.638 405.276C438.597 670.307 301.605 747.607 228.689 789.57L226.48 790.675C219.851 795.092 213.222 798.405 206.594 801.718C90.5919 871.288 66.2868 894.478 75.125 923.19ZM531.399 708.957C533.608 702.331 538.028 695.705 544.656 692.393C671.706 622.822 734.678 510.184 761.193 461.595L766.717 451.656C774.45 438.405 791.022 433.988 804.279 440.613C817.537 448.344 821.956 464.908 815.327 478.159L809.803 488.098C781.079 540 712.583 662.577 571.171 739.877C566.752 742.086 562.333 743.19 557.914 743.19C553.495 743.19 549.075 742.086 544.656 739.877C540.237 737.669 535.818 733.251 533.608 728.834C529.189 723.313 529.189 715.583 531.399 708.957ZM0 517.914C0 527.853 5.5239 537.791 14.3621 542.208C18.7812 544.417 23.2004 545.521 27.6195 545.521L401.035 547.73C408.768 547.73 415.397 544.417 420.921 540C426.445 534.478 428.654 527.853 428.654 520.123C428.654 504.662 416.502 492.515 401.035 492.515L27.6195 490.307C12.1526 490.307 0 502.454 0 517.914ZM665.077 895.583L722.526 1237.91C723.631 1246.75 729.154 1253.37 736.888 1257.79C741.307 1260 745.726 1261.1 750.145 1261.1C751.25 1261.1 753.46 1261.1 754.564 1261.1C770.031 1258.9 779.974 1244.54 776.66 1229.08L719.211 886.748C717.002 871.288 702.64 861.35 687.173 863.558C672.811 865.767 662.868 880.123 665.077 895.583ZM752.355 848.098L963.368 1151.78C965.577 1155.09 968.892 1158.4 973.311 1160.61C977.73 1162.82 982.149 1163.93 986.568 1163.93C992.092 1163.93 997.616 1162.82 1002.03 1159.51C1014.19 1150.67 1017.5 1134.11 1008.66 1120.86L797.651 817.178C788.812 805.031 772.241 801.718 758.983 810.552C746.831 818.282 743.517 835.951 752.355 848.098Z" fill="#C2312C"/>
</svg>
