<svg width="64" height="100" viewBox="0 0 64 100" fill="none" xmlns="http://www.w3.org/2000/svg">
<path d="M0 50C0 22.3858 22.3858 0 50 0H64V100H50C22.3858 100 0 77.6142 0 50Z" fill="#C2312C"/>
<path d="M45.0607 51.0607C45.6464 50.4749 45.6464 49.5251 45.0607 48.9393L35.5147 39.3934C34.9289 38.8076 33.9792 38.8076 33.3934 39.3934C32.8076 39.9792 32.8076 40.9289 33.3934 41.5147L41.8787 50L33.3934 58.4853C32.8076 59.0711 32.8076 60.0208 33.3934 60.6066C33.9792 61.1924 34.9289 61.1924 35.5147 60.6066L45.0607 51.0607ZM20 51.5H44V48.5H20V51.5Z" fill="#F6FAF4"/>
</svg>
