<svg width="36" height="36" viewBox="0 0 36 36" fill="none" xmlns="http://www.w3.org/2000/svg">
<g clip-path="url(#clip0_326_2102)">
<path d="M36 10.8146H30.9078C27.3798 8.41336 23.0634 7.19836 18 7.19836C12.9366 7.19836 8.6184 8.41336 5.0922 10.8146H0C0.7704 11.5706 1.4886 13.2266 1.7874 14.4866C0.633275 16.023 0.00634867 17.8912 0 19.8128C0 24.7754 4.0374 28.8128 9 28.8128C11.2953 28.8087 13.5012 27.9226 15.1614 26.3378L18 30.5984L20.8386 26.3396C22.4986 27.9251 24.7045 28.8118 27 28.8164C31.9626 28.8164 36 24.779 36 19.8164C36 17.8148 35.3214 15.9824 34.2126 14.4884C34.5114 13.2284 35.2296 11.5724 36 10.8164V10.8146ZM9 25.9346C5.625 25.9346 2.88 23.1896 2.88 19.8146C2.88 16.4396 5.625 13.6946 9 13.6946C12.375 13.6946 15.12 16.4396 15.12 19.8146C15.12 23.1896 12.375 25.9346 9 25.9346ZM18 19.8146C17.997 17.7382 17.2772 15.7266 15.9624 14.1196C14.6476 12.5126 12.8184 11.4088 10.7838 10.9946C12.951 10.2656 15.354 9.89836 18 9.89836C20.646 9.89836 23.049 10.2656 25.2162 10.9964C23.1822 11.4104 21.3534 12.5138 20.0387 14.12C18.724 15.7263 18.0039 17.7371 18 19.8128V19.8146ZM27 25.9346C23.625 25.9346 20.88 23.1896 20.88 19.8146C20.88 16.4396 23.625 13.6946 27 13.6946C30.375 13.6946 33.12 16.4396 33.12 19.8146C33.12 23.1896 30.375 25.9346 27 25.9346ZM9 15.9464C6.867 15.9464 5.13 17.6816 5.13 19.8164C5.13 21.9512 6.867 23.6864 9 23.6864C11.133 23.6864 12.87 21.9512 12.87 19.8164C12.87 17.6816 11.133 15.9464 9 15.9464ZM9 20.9702C8.6897 20.9702 8.3921 20.8469 8.17268 20.6275C7.95327 20.4081 7.83 20.1105 7.83 19.8002C7.83 19.4899 7.95327 19.1923 8.17268 18.9728C8.3921 18.7534 8.6897 18.6302 9 18.6302C9.3103 18.6302 9.6079 18.7534 9.82732 18.9728C10.0467 19.1923 10.17 19.4899 10.17 19.8002C10.17 20.1105 10.0467 20.4081 9.82732 20.6275C9.6079 20.8469 9.3103 20.9702 9 20.9702ZM27 15.9464C24.867 15.9464 23.13 17.6816 23.13 19.8164C23.13 21.9512 24.867 23.6864 27 23.6864C29.133 23.6864 30.87 21.9512 30.87 19.8164C30.87 17.6816 29.133 15.9464 27 15.9464ZM27 20.9702C26.6897 20.9702 26.3921 20.8469 26.1727 20.6275C25.9533 20.4081 25.83 20.1105 25.83 19.8002C25.83 19.4899 25.9533 19.1923 26.1727 18.9728C26.3921 18.7534 26.6897 18.6302 27 18.6302C27.3103 18.6302 27.6079 18.7534 27.8273 18.9728C28.0467 19.1923 28.17 19.4899 28.17 19.8002C28.17 20.1105 28.0467 20.4081 27.8273 20.6275C27.6079 20.8469 27.3103 20.9702 27 20.9702Z" fill="#F6FAF4"/>
</g>
<defs>
<clipPath id="clip0_326_2102">
<rect width="36" height="36" fill="white" transform="translate(0 0.00012207)"/>
</clipPath>
</defs>
</svg>
